<?xml version="1.0" encoding="UTF-8"?>
<svg id="Camada_1" xmlns="http://www.w3.org/2000/svg" version="1.1" viewBox="0 0 1000 550">
  <!-- Generator: Adobe Illustrator 29.8.2, SVG Export Plug-In . SVG Version: 2.1.1 Build 3)  -->
  <defs>
    <style>
      .st0 {
        fill: #5b3422;
      }

      .st1 {
        fill: #dfdede;
      }

      .st2 {
        fill: #706523;
      }

      .st3 {
        fill: #fff;
      }

      .st4 {
        fill: #0d5366;
      }

      .st5 {
        stroke: #13110c;
        stroke-linecap: round;
        stroke-width: .31px;
      }

      .st5, .st6 {
        fill: none;
        stroke-miterlimit: 10;
      }

      .st7 {
        fill: #f5c6a1;
      }

      .st8 {
        fill: #d8b000;
      }

      .st9 {
        fill: #422618;
      }

      .st10 {
        fill: #593522;
      }

      .st11 {
        fill: #402517;
      }

      .st12 {
        fill: #f8f8f9;
      }

      .st13 {
        fill: #f6c5a0;
      }

      .st14 {
        fill: #f6c8a2;
      }

      .st6 {
        stroke: #0d5366;
        stroke-width: .36px;
      }
    </style>
  </defs>
  <g>
    <g>
      <path class="st4" d="M292.07,453.89l5.52-6.8c4.84,4.35,10.44,7.1,17.34,7.1,6.52,0,9.9-3.21,9.9-6.96,0-4.35-3.76-5.8-12.2-7.8-10.9-2.53-18.49-5.66-18.49-15.52,0-9.17,7.82-15.9,18.95-15.9,8.36,0,14.66,2.83,19.95,7.35l-5.21,7.03c-4.61-3.98-9.9-6.2-15.12-6.2s-8.9,3.21-8.9,6.88c0,4.28,3.92,5.82,12.28,7.73,10.97,2.44,18.33,5.96,18.33,15.51s-7.21,16.06-19.79,16.06c-9.06,0-16.72-3.06-22.56-8.49"/>
      <path class="st4" d="M421.57,452.05h-25.48l-3.98,9.48h-10.67l22.02-52.52h10.67l22.01,52.52h-10.58l-3.98-9.48ZM418.12,443.8l-9.28-22.1-9.28,22.1h18.57Z"/>
      <path class="st4" d="M485.54,439.13v-30.12h9.6v29.82c0,8.71,5.68,14.97,13.65,14.97s13.74-6.26,13.74-14.97v-29.82h9.52v30.12c0,13.69-9.6,23.32-23.26,23.32s-23.25-9.63-23.25-23.32M510.4,392.96l8.74,1.68-11.2,9.94h-6.52l8.98-11.62Z"/>
      <path class="st4" d="M586.05,409.01h18.57c17.42,0,29.7,10.86,29.7,26.23s-12.28,26.29-29.7,26.29h-18.57v-52.52ZM605.61,452.89c11.12,0,18.95-7.34,18.95-17.66s-7.82-17.58-18.95-17.58h-9.98v35.24h9.98Z"/>
      <polygon class="st4" points="695.59 417.73 695.59 430.42 722.83 430.42 722.83 439.13 695.59 439.13 695.59 452.82 725.67 452.82 725.67 461.53 686 461.53 686 409.01 725.67 409.01 725.67 417.73 695.59 417.73"/>
    </g>
    <g>
      <path class="st8" d="M292.07,148.93c0-32.29,27.69-59.37,60.59-59.37,16.96,0,32.39,7.19,43.47,18.56l-14.94,13.88c-7.05-8.2-17.45-13.38-28.53-13.38-21.31,0-39.27,18.4-39.27,40.31s17.96,40.46,39.27,40.46c11.25,0,21.48-5.19,28.71-13.38l14.76,13.71c-11.08,11.54-26.51,18.73-43.47,18.73-32.9,0-60.59-27.25-60.59-59.53"/>
      <path class="st8" d="M479.94,154.44v52.02h-19.97v-10.37c-6.38,8.03-17.29,12.38-27.36,12.38-18.46,0-32.39-10.88-32.39-27.6s15.95-28.78,35.42-28.78c7.89,0,16.44,1.69,24.33,4.69v-2.34c0-10.03-5.54-19.73-21.31-19.73-8.23,0-16.12,2.84-23.5,6.52l-7.05-14.21c12.26-6.03,23.67-9.03,34.58-9.03,22.99,0,37.25,14.54,37.25,36.45M459.97,179.35v-9.7c-6.38-2.18-13.59-3.34-21.31-3.34-10.25,0-18.46,5.69-18.46,13.88s7.22,13.38,16.95,13.38,20.48-5.01,22.83-14.21"/>
      <path class="st8" d="M547.47,117.99v17.39c-18.63,0-31.06,11.04-31.06,27.42v43.65h-20.47v-86.46h20.47v16.73c5.54-11.54,16.79-18.73,31.06-18.73"/>
      <path class="st8" d="M605.06,201.6c-4.87,4.18-11.92,6.86-18.46,6.86-14.43,0-24.5-10.37-24.5-24.92v-46.66h-12.59v-16.9h12.59v-23.74h19.97v23.74h19.64v16.9h-19.64v44.15c0,5.85,3.69,10.03,8.56,10.03,3.52,0,6.71-1.34,8.56-3.19l5.87,13.72Z"/>
      <path class="st8" d="M689.34,154.44v52.02h-19.97v-10.37c-6.38,8.03-17.3,12.38-27.36,12.38-18.46,0-32.39-10.88-32.39-27.6s15.95-28.78,35.42-28.78c7.89,0,16.44,1.69,24.33,4.69v-2.34c0-10.03-5.54-19.73-21.31-19.73-8.23,0-16.11,2.84-23.5,6.52l-7.05-14.21c12.26-6.03,23.67-9.03,34.57-9.03,23,0,37.26,14.54,37.26,36.45M634.64,110.79l-10.58-1.51c1.68-14.04,7.22-21.41,17.79-21.41,9.57,0,15.95,9.37,21.83,9.37,4.03,0,6.38-3.01,7.55-9.7l10.74,1.67c-1.68,13.89-7.4,21.41-17.79,21.41-9.74,0-16.12-9.36-21.99-9.36-4.03,0-6.39,2.84-7.55,9.53M669.38,179.35v-9.7c-6.38-2.18-13.59-3.34-21.31-3.34-10.25,0-18.46,5.69-18.46,13.88s7.22,13.38,16.95,13.38,20.48-5.01,22.83-14.21"/>
      <path class="st8" d="M700.3,163.14c0-24.58,21.31-45.15,46.49-45.15s46.49,20.57,46.49,45.15-21.3,45.33-46.49,45.33-46.49-20.75-46.49-45.33M773.15,163.14c0-15.05-12.09-27.76-26.35-27.76s-26.51,12.7-26.51,27.76,12.08,27.93,26.51,27.93,26.35-12.72,26.35-27.93"/>
    </g>
    <g>
      <path class="st8" d="M379.85,329.15h-55.72l-8.72,20.75h-23.34l48.17-114.9h23.32l48.17,114.9h-23.16l-8.74-20.75ZM372.31,311.09l-20.32-48.32-20.3,48.32h40.62Z"/>
      <path class="st8" d="M468.87,345.04c-4.87,4.18-11.92,6.86-18.46,6.86-14.43,0-24.5-10.37-24.5-24.92v-46.66h-12.58v-16.9h12.58v-23.74h19.98v23.74h19.63v16.9h-19.63v44.15c0,5.85,3.69,10.03,8.56,10.03,3.51,0,6.71-1.34,8.56-3.19l5.86,13.72Z"/>
      <path class="st8" d="M476.78,238.68c0-6.18,5.21-11.53,11.75-11.53s11.58,5.35,11.58,11.53-5.21,11.71-11.58,11.71-11.75-5.51-11.75-11.71M478.13,263.43h20.47v86.46h-20.47v-86.46Z"/>
      <polygon class="st8" points="506.35 263.43 528 263.43 553.17 326.31 577.84 263.43 599.65 263.43 562.9 349.89 543.6 349.89 506.35 263.43"/>
      <path class="st8" d="M676.24,297.88v52.02h-19.98v-10.37c-6.36,8.03-17.29,12.38-27.36,12.38-18.45,0-32.38-10.88-32.38-27.6s15.95-28.78,35.41-28.78c7.89,0,16.45,1.69,24.33,4.69v-2.34c0-10.03-5.53-19.73-21.3-19.73-8.24,0-16.12,2.84-23.5,6.52l-7.05-14.21c12.26-6.03,23.66-9.03,34.57-9.03,23,0,37.26,14.54,37.26,36.45M656.26,322.8v-9.7c-6.36-2.18-13.59-3.34-21.3-3.34-10.25,0-18.48,5.69-18.48,13.88s7.23,13.38,16.96,13.38,20.47-5.01,22.82-14.21"/>
      <polygon class="st8" points="693.9 235 714.88 235 752.82 305.08 790.93 235 811.72 235 811.72 349.89 790.93 349.89 790.93 273.13 752.82 343.2 714.88 273.13 714.88 349.89 693.9 349.89 693.9 235"/>
      <path class="st8" d="M904.96,297.88v52.02h-19.98v-10.37c-6.36,8.03-17.29,12.38-27.36,12.38-18.45,0-32.38-10.88-32.38-27.6s15.95-28.78,35.41-28.78c7.89,0,16.45,1.69,24.33,4.69v-2.34c0-10.03-5.53-19.73-21.3-19.73-8.24,0-16.12,2.84-23.5,6.52l-7.05-14.21c12.26-6.03,23.66-9.03,34.57-9.03,23,0,37.26,14.54,37.26,36.45M884.98,322.8v-9.7c-6.36-2.18-13.59-3.34-21.3-3.34-10.25,0-18.48,5.69-18.48,13.88s7.23,13.38,16.96,13.38,20.47-5.01,22.82-14.21"/>
      <polygon class="st8" points="977.34 349.89 956.18 320.96 934.88 349.89 912.55 349.89 945.11 305.74 914.06 263.43 936.55 263.43 956.36 290.36 976.17 263.43 998.48 263.43 967.43 305.57 1000 349.89 977.34 349.89"/>
    </g>
  </g>
  <g>
    <path class="st1" d="M222.65,533.59c0,9.06-45.75,16.41-102.19,16.41s-102.17-7.35-102.17-16.41,45.75-16.42,102.17-16.42,102.19,7.35,102.19,16.42"/>
    <path class="st13" d="M204.63,355.24c0,9.29-5.52,16.83-12.34,16.83s-12.34-7.54-12.34-16.83,5.52-16.83,12.34-16.83,12.34,7.53,12.34,16.83"/>
    <path class="st7" d="M59.14,355.34c0,9.35-5.56,16.94-12.4,16.94s-12.41-7.59-12.41-16.94,5.56-16.93,12.41-16.93,12.4,7.58,12.4,16.93"/>
    <rect class="st10" x="126.47" y="421.54" width="46.23" height="96.09"/>
    <rect class="st10" x="67.6" y="421.54" width="46.82" height="96.09"/>
    <path class="st12" d="M212.27,337.63s-24.75-99.74-67.58-114.5l-19.26.21-34.4.39s-46.19,26.46-62.35,113.89l28.87,13.81-12.71,79.38h150.11l-12.71-80.53,30.03-12.66Z"/>
    <path class="st2" d="M106.04,296.21s-27.56-5.67-34.48-55.15c0,0,5.61,12.58,25.24,17.18l-12.12,14.38,21.36,23.59Z"/>
    <path class="st2" d="M134.91,296.21s27.15-5.07,34.08-54.53c0,0-5.22,11.97-24.84,16.56l12.12,14.38-21.36,23.59Z"/>
    <path class="st2" d="M67.97,350.78c.09.44.2.86.34,1.28,1.57,4.83,5.74,8.89,10.7,10.17,8.45,2.16,16.37-4.69,17.11-12.92.25-2.65.02-5.23.02-7.88v-7.54h-28.36c0,2.91-.03,5.82-.07,8.72-.03,2.72-.29,5.5.27,8.18"/>
    <path class="st2" d="M144.45,350.78c.09.44.2.86.33,1.28,1.58,4.83,5.75,8.89,10.71,10.17,8.45,2.16,16.35-4.69,17.11-12.92.24-2.65.02-5.23.02-7.88v-7.54h-28.38c0,2.91-.02,5.82-.06,8.72-.03,2.72-.29,5.5.27,8.18"/>
    <polygon class="st2" points="119.27 323.59 123.76 323.59 123.57 430.82 119.81 430.82 119.27 323.59"/>
    <path class="st4" d="M161.64,307.18c0,4.55-3.69,8.23-8.26,8.23s-8.27-3.68-8.27-8.23,3.7-8.23,8.27-8.23,8.26,3.69,8.26,8.23"/>
    <polygon class="st2" points="95.02 229.37 104.5 232.04 120.47 251.32 138.5 231.07 145.74 228.68 121.18 311.79 95.02 229.37"/>
    <path class="st4" d="M115.28,521.84c0,9.46-10.87,17.13-24.27,17.13s-24.26-7.67-24.26-17.13,10.87-17.12,24.26-17.12,24.27,7.66,24.27,17.12"/>
    <path class="st4" d="M173.85,521.84c0,9.46-10.87,17.13-24.26,17.13s-24.27-7.67-24.27-17.13,10.88-17.12,24.27-17.12,24.26,7.66,24.26,17.12"/>
    <path class="st6" d="M55.2,309.36c-1.64-6.39-2.47-13.05-2.79-19.6-.57-12.11.81-25.2,7.52-35.62,3.48-5.41,9.79-12.92,16.85-13.06,5.78-.12,10.98,4.31,14.36,8.58,4.01,5.08,6.27,11.38,7.63,17.64,3,13.73,2.08,28.25.26,42.07"/>
    <path class="st4" d="M103.6,309.69c0,2.43-1.98,4.4-4.41,4.4s-4.4-1.97-4.4-4.4,1.98-4.38,4.4-4.38,4.41,1.96,4.41,4.38"/>
    <path class="st4" d="M60.01,309.69c0,2.43-1.98,4.4-4.41,4.4s-4.4-1.97-4.4-4.4,1.98-4.38,4.4-4.38,4.41,1.96,4.41,4.38"/>
    <path class="st6" d="M73.7,241.37c1.73-8,7.21-14.91,14.09-19.34,6.89-4.44,15.1-6.58,23.28-7.17,12.68-.91,25.89,1.97,36.1,9.53,10.2,7.56,16.95,20.13,15.93,32.76"/>
    <path class="st14" d="M211.69,152.12c0,44.63-41.74,80.82-93.24,80.82S25.21,196.75,25.21,152.12s41.74-80.82,93.24-80.82,93.24,36.19,93.24,80.82"/>
    <path class="st9" d="M87.56,155.28c0,6.67-3.87,12.08-8.65,12.08s-8.67-5.41-8.67-12.08,3.87-12.08,8.67-12.08,8.65,5.4,8.65,12.08"/>
    <path class="st3" d="M85.57,152.12c0,2.17-1.27,3.94-2.82,3.94s-2.82-1.77-2.82-3.94,1.26-3.93,2.82-3.93,2.82,1.76,2.82,3.93"/>
    <path class="st11" d="M163.77,155.28c0,6.67-3.87,12.08-8.65,12.08s-8.67-5.41-8.67-12.08,3.88-12.08,8.67-12.08,8.65,5.4,8.65,12.08"/>
    <path class="st5" d="M107.44,186.38c1.59,3.8,4.59,7.03,8.36,8.73,3.76,1.69,8.27,1.76,12.01-.02,3.73-1.78,6.54-5.44,7.09-9.51"/>
    <path class="st5" d="M121.76,164.35l-3.73,4.83c-.07.08-.01.21.11.21h5.56"/>
    <path class="st0" d="M226.22,101.84c-.72-5.01-1.71-9.98-3.09-14.84-1.98-7.93-5.47-15.37-9.41-22.49-3.92-6.58-8.31-13-13.91-18.29-7.63-7.38-16.43-13.58-26.07-18.11-3.63-1.62-7.33-3.72-11.42-3.63-.66-.18-1.32-.36-1.95-.55.3-.68.63-1.36.95-2.04,1.85-.84,3.64-1.81,5.31-2.93.29-.19.86-.56,1.14-.76-3.6-2.26-8.01-2.16-12.03-3.11-12.02-2.53-24.38-3.42-36.64-2.54-9.77.83-19.51,3.16-28.16,7.82-.93.68-1.74,1.5-2.57,2.27-1.21,1.11-2.39,2.25-3.46,3.49.02-.69-.07-1.42.24-2.06,3.46-7.19,8.29-13.77,10.74-21.42.13-.88.24-1.78.33-2.66-1.37.69-2.67,1.5-3.96,2.35-11.64,6.2-22.39,14.39-30.47,24.88-2.93,3.76-4.74,8.19-6.27,12.64-4.7-3.15-10.69-3.72-16.17-2.85-11.94,2.38-22.66,9.95-29.04,20.28-.57.88-1.11,1.77-1.65,2.66,1.96,1.26,3.67-1.11,5.23-2.05.08.25.26.75.35,1.01,3.36-.65,6.34-2.49,9.69-3.15.16.2.47.6.63.79-2.69,1.3-5.65,2.38-7.54,4.82-4.69,5.65-8.43,12.08-11.29,18.83-2.83,7.11-4.27,14.7-4.99,22.3-1.08,7.74-.89,15.62.1,23.35.35,4.76,1.26,9.45,2.38,14.09,1.45,7.6,3.91,15.09,7.95,21.74,2.24-.69,4.52-1.33,6.81-1.88-.02-1.14-.07-2.29-.11-3.44.08-.35.25-1.02.34-1.35,1.59.48,2.59,1.88,3.49,3.18.8,3.41,1.72,6.79,2.77,10.13.9,3.59,2.65,7.03,5.43,9.53-.59-3.22-1.71-6.35-1.87-9.64-.33-6.52.06-13.04.62-19.53.91-12.81,6.42-25.3,15.51-34.43,4.24-4.03,8.63-7.93,13.68-10.95,4.13-2.82,8.7-4.86,13.12-7.18.03-.23.11-.67.16-.89-.56-.47-1.13-.92-1.68-1.38-2.07-2.07-3.3-4.78-4.16-7.52,2.9.45,4.59,2.93,6.51,4.85,6.17,5.19,14.15,7.6,21.95,9.07,11.39,2.56,23.19,2.3,34.77,1.57,13.02-.83,43.84-3.98,46.29-2.28,9.17,6.74,16.41,16.04,20.75,26.53,4.61,12.45,6.54,25.89,5.35,39.12-.18,4.16-1.07,8.26-1.31,12.43,3.54-6.26,4.85-13.52,5.76-20.57.95-7.38,1.9-14.43,3.96-21.62-.21.74.48,2.51.63,3.29.19,1.05.28,1.97.28,3.03-.01,1.49-.59,17.25-.33,17.32,2.2.62,4.23,2.06,6.52,2.23,1.84-2.44,2.75-5.41,3.93-8.21,2.32-5.66,3.87-11.6,5.14-17.57.77-3.62,1.25-7.3,1.28-11.02.17-2.85.19-5.71.17-8.58-.01-4.7.2-9.45-.7-14.09"/>
    <path class="st3" d="M160.74,151.35c0,2.17-1.26,3.94-2.82,3.94s-2.82-1.77-2.82-3.94,1.26-3.94,2.82-3.94,2.82,1.77,2.82,3.94"/>
    <path class="st4" d="M172.74,264.08c0,6.11-4.96,11.06-11.1,11.06s-11.11-4.95-11.11-11.06,4.98-11.06,11.11-11.06,11.1,4.95,11.1,11.06"/>
    <path class="st3" d="M167.69,264.08c0,3.32-2.71,6.02-6.05,6.02s-6.04-2.7-6.04-6.02,2.71-6.03,6.04-6.03,6.05,2.71,6.05,6.03"/>
  </g>
</svg>